
<svg width="32" height="32" viewBox="0 0 32 32" fill="none" xmlns="http://www.w3.org/2000/svg">
<rect width="32" height="32" rx="4" fill="white"/>
<path fill-rule="evenodd" clip-rule="evenodd" d="M11.7157 10.9443L27.6115 2C27.6115 2 26.1129 3.31828 26.1788 6.1719C26.2491 9.21305 27.6115 10.3439 27.6115 10.3439L25.7437 9.49287L11.1214 15.2171C11.1214 15.2171 10.7664 14.2224 10.7606 13.4727C10.7455 11.6231 11.7157 10.9443 11.7157 10.9443Z" fill="#029DD1"/>
<path fill-rule="evenodd" clip-rule="evenodd" d="M8.33406 16.7914L25.7013 10.4385C25.7013 10.4385 24.2027 11.7568 24.2686 14.6105C24.3389 17.6516 25.7013 18.7824 25.7013 18.7824L23.275 17.8484L7.68678 20.9169C7.68678 20.9169 7.38446 20 7.37896 19.3198C7.36395 17.4701 8.33406 16.7914 8.33406 16.7914Z" fill="#004BB7"/>
<path fill-rule="evenodd" clip-rule="evenodd" d="M4.95527 21.9435L23.2794 18.6562C23.2794 18.6562 21.7809 19.9745 21.8467 22.8282C21.917 25.8693 23.2794 27.0002 23.2794 27.0002H5.0921C5.0921 27.0002 4.01612 26.3466 4.00017 24.377C3.98517 22.5273 4.95527 21.9435 4.95527 21.9435Z" fill="#4817A1"/>
</svg>
